<?xml version="1.0" standalone="no"?>
<!DOCTYPE svg PUBLIC "-//W3C//DTD SVG 20010904//EN"
 "http://www.w3.org/TR/2001/REC-SVG-20010904/DTD/svg10.dtd">
<svg version="1.0" xmlns="http://www.w3.org/2000/svg"
 width="260.000000pt" height="260.000000pt" viewBox="0 0 260.000000 260.000000"
 preserveAspectRatio="xMidYMid meet">
<metadata>
Created by potrace 1.11, written by Peter Selinger 2001-2013
</metadata>
<g transform="translate(0.000000,260.000000) scale(0.100000,-0.100000)"
fill="#000000" stroke="none">
<path d="M1170 2594 c-165 -21 -315 -66 -460 -140 -357 -182 -603 -509 -687
-914 -24 -117 -24 -363 0 -480 111 -534 503 -926 1037 -1037 117 -24 363 -24
480 0 408 85 738 335 920 697 97 194 134 356 134 580 0 109 -5 180 -17 240
-109 526 -494 918 -1012 1031 -88 19 -318 32 -395 23z m975 -1056 c37 -150 69
-280 71 -289 4 -13 -7 -20 -46 -29 -29 -7 -55 -9 -59 -4 -9 11 -145 564 -140
568 5 4 80 24 95 25 7 1 39 -110 79 -271z m-483 141 c156 -33 251 -141 252
-284 1 -142 -95 -255 -267 -315 -196 -69 -381 -34 -474 88 -39 52 -53 98 -53
178 0 147 140 285 330 323 30 6 64 13 75 15 39 7 85 6 137 -5z m-762 -219 c61
-31 87 -99 59 -153 -6 -12 -24 -35 -40 -52 l-28 -30 41 -3 c47 -3 85 -21 113
-52 15 -17 20 -36 20 -79 0 -120 -72 -166 -383 -242 -117 -29 -214 -50 -216
-48 -10 12 -142 570 -136 574 8 5 345 89 390 98 66 12 142 6 180 -13z"/>
<path d="M1429 1594 c-197 -60 -263 -268 -129 -405 55 -57 104 -73 210 -67
125 7 228 66 270 154 32 66 26 163 -15 230 -45 71 -112 104 -214 103 -42 0
-97 -7 -122 -15z"/>
<path d="M735 1403 c-44 -9 -280 -66 -283 -68 -2 -1 7 -41 19 -89 14 -58 26
-86 36 -86 31 0 258 62 294 81 57 29 72 69 47 123 -9 22 -65 50 -88 45 -3 -1
-14 -3 -25 -6z"/>
<path d="M656 1124 c-77 -19 -141 -36 -142 -37 -4 -3 43 -187 48 -192 7 -7
302 71 335 88 57 30 76 77 52 130 -26 57 -98 60 -293 11z"/>
</g>
</svg>
